Coordinates
version=1
nRows=8
nColumns=63
inDegrees=yes

Units are S.I. units (second, meters, Newtons, ...)
If the header above contains a line with 'inDegrees', this indicates whether rotational values are in degrees (yes) or radians (no).

endheader
time	pelvis_tilt	pelvis_list	pelvis_rotation	pelvis_tx	pelvis_ty	pelvis_tz	hip_flexion_r	hip_adduction_r	hip_rotation_r	knee_angle_r	knee_angle_r_beta	ankle_angle_r	subtalar_angle_r	mtp_angle_r	hip_flexion_l	hip_adduction_l	hip_rotation_l	knee_angle_l	knee_angle_l_beta	ankle_angle_l	subtalar_angle_l	mtp_angle_l	L5_S1_Flex_Ext	L5_S1_Lat_Bending	L5_S1_axial_rotation	L4_L5_Flex_Ext	L4_L5_Lat_Bending	L4_L5_axial_rotation	L3_L4_Flex_Ext	L3_L4_Lat_Bending	L3_L4_axial_rotation	L2_L3_Flex_Ext	L2_L3_Lat_Bending	L2_L3_axial_rotation	L1_L2_Flex_Ext	L1_L2_Lat_Bending	L1_L2_axial_rotation	L1_T12_Flex_Ext	L1_T12_Lat_Bending	L1_T12_axial_rotation	Abs_r3	Abs_r2	Abs_r1	Abs_t1	Abs_t2	neck_flexion	neck_bending	neck_rotation	arm_flex_r	arm_add_r	arm_rot_r	elbow_flex_r	pro_sup_r	wrist_flex_r	wrist_dev_r	arm_flex_l	arm_add_l	arm_rot_l	elbow_flex_l	pro_sup_l	wrist_flex_l	wrist_dev_l
      3.16949153	     -2.21549400	     -0.17415257	    101.31597306	      0.18810573	      0.48821247	      0.93346561	     -7.92417247	      2.40734970	     -5.46539487	      4.64094605	      0.08099979	     41.60705864	      2.95374044	      0.00000000	     -4.30948505	      2.86043338	     11.62135860	      9.42897818	      0.16456671	     43.42788121	     -5.72470587	      0.00000000	     -0.11633568	     -0.10767916	     -1.25318033	     -0.21604700	     -0.14321329	     -1.33150410	     -0.19112790	     -0.26181112	     -1.33150410	     -0.13296005	     -0.26181112	     -1.09653278	     -0.10802932	     -0.21957935	     -1.01820901	     -0.06647421	     -0.16679503	     -0.93988524	     -0.83097416	     -1.21808824	     -6.96981302	      0.00000000	      0.00000000	     20.00633194	     -0.07817119	     -5.03039910	    -31.95636593	    -19.10976631	     20.85826569	     78.56725896	     65.35395792	     66.90439108	    -23.89680996	    -33.77226139	     -7.36266450	      2.85531630	     64.26798139	      0.43802241	    -67.04210223	     34.56759620
      3.18644068	     -2.00336200	      0.04711697	    101.24624129	      0.18807291	      0.48822752	      0.93403527	     -8.11954850	      2.63972665	     -5.53318343	      4.62898382	      0.08079101	     41.47512082	      3.21685357	      0.00000000	     -4.38050870	      2.48823835	      9.64376298	      9.76687290	      0.17046409	     43.63858657	     -3.54743958	      0.00000000	     -0.14130580	     -0.07589776	     -1.30519672	     -0.26241901	     -0.10094402	     -1.38677152	     -0.23215131	     -0.18453782	     -1.38677152	     -0.16149840	     -0.18453782	     -1.14204713	     -0.13121657	     -0.15477072	     -1.06047234	     -0.08074214	     -0.11756563	     -0.97889754	     -1.00933323	     -0.85857067	     -7.25911260	      0.00000000	      0.00000000	     19.48207830	     -0.15126718	     -4.55692890	    -31.35311546	    -20.34350144	     22.26693603	     79.18988792	     64.26124994	     65.67008293	    -23.94010735	    -33.68215321	     -7.38867298	      3.32878956	     64.20651707	      0.43460984	    -67.10052999	     34.57228927
      3.20338983	     -1.93058205	     -0.09721159	    101.46651990	      0.18781120	      0.48762944	      0.93403301	     -7.92039563	      2.71655292	     -5.77916276	      4.81414932	      0.08402276	     41.53141006	      3.08969788	      0.00000000	     -4.29890537	      2.54915150	     11.22029910	      9.78101228	      0.17071087	     42.86850878	     -5.55331469	      0.00000000	     -0.11945121	     -0.07244974	     -1.33945314	     -0.22183284	     -0.09635816	     -1.42316896	     -0.19624639	     -0.17615431	     -1.42316896	     -0.13652078	     -0.17615431	     -1.17202150	     -0.11092239	     -0.14773952	     -1.08830568	     -0.06825442	     -0.11222465	     -1.00458986	     -0.85322803	     -0.81956599	     -7.44963654	      0.00000000	      0.00000000	     19.70496264	      0.00253331	     -4.71491417	    -31.56802277	    -19.93870455	     21.23126136	     79.16585324	     65.51759157	     67.54809471	    -23.77627169	    -33.89210946	     -7.35387097	      3.08148966	     64.44222079	      0.44408056	    -66.99137196	     34.56532483
      3.22033898	     -1.87039995	     -0.20325104	    101.12557018	      0.18887095	      0.48715449	      0.93375404	     -7.80192063	      2.84465466	     -3.17737442	      4.84700174	      0.08459614	     40.98732408	      0.15812726	      0.00000000	     -4.01594492	      2.09845415	      5.72092771	     10.20903944	      0.17818135	     43.75570836	      0.67075090	      0.00000000	     -0.11021596	     -0.07192752	     -1.23278222	     -0.20468206	     -0.09566360	     -1.30983111	     -0.18107380	     -0.17488457	     -1.30983111	     -0.12596582	     -0.17488457	     -1.07868444	     -0.10234654	     -0.14667460	     -1.00163555	     -0.06297740	     -0.11141573	     -0.92458666	     -0.78726160	     -0.81365849	     -6.85636487	      0.00000000	      0.00000000	     19.87158969	     -0.05905563	     -5.01906388	    -31.88779791	    -19.69927710	     20.78017373	     79.29103248	     65.68591924	     67.80793476	    -23.73562728	    -33.94544709	     -7.51313540	      3.03492301	     64.63978446	      0.44997806	    -67.06162874	     34.56178203
      3.23728814	     -1.83518220	     -0.31456594	    101.55785447	      0.18811751	      0.48675958	      0.93353533	     -7.78083576	      2.91326595	     -3.69089348	      4.80887371	      0.08393068	     40.93550205	      0.14789700	      0.00000000	     -4.07543023	      2.38418721	      9.93752520	     10.02198303	      0.17491660	     42.50300159	     -4.23290553	      0.00000000	     -0.10443021	     -0.06278981	     -1.23056046	     -0.19393735	     -0.08351045	     -1.30747049	     -0.17156840	     -0.15266715	     -1.30747049	     -0.11935329	     -0.15266715	     -1.07674040	     -0.09697390	     -0.12804099	     -0.99983038	     -0.05967142	     -0.09726142	     -0.92292035	     -0.74593458	     -0.71029093	     -6.84400813	      0.00000000	      0.00000000	     20.22449640	     -0.32362027	     -5.12682815	    -32.33236304	    -19.55503378	     20.57525458	     79.36146371	     65.18575686	     67.81966068	    -23.77025496	    -33.82413542	     -7.77605438	      3.46424545	     64.73887559	      0.45044342	    -67.19660567	     34.55850032
      3.25423729	     -1.84147405	     -0.45410670	    101.56571025	      0.18865051	      0.48634225	      0.93320812	     -7.65739970	      2.93058833	     -3.42914390	      4.84590122	      0.08457693	     40.83455280	     -0.35989865	      0.00000000	     -3.80446291	      2.09900308	      6.35389314	     10.34102762	      0.18048498	     43.10276484	      0.10055091	      0.00000000	     -0.09935113	     -0.06783696	     -1.12564576	     -0.18450499	     -0.09022316	     -1.19599862	     -0.16322398	     -0.16493879	     -1.19599862	     -0.11354841	     -0.16493879	     -0.98494004	     -0.09225746	     -0.13833314	     -0.91458718	     -0.05676924	     -0.10507946	     -0.84423432	     -0.70965522	     -0.76738531	     -6.26050400	      0.00000000	      0.00000000	     20.65711579	     -0.56993648	     -5.57657321	    -32.95975781	    -18.88176225	     20.02235903	     79.15948728	     64.75033016	     67.89646212	    -23.83745130	    -33.76655781	     -8.03030667	      3.50216238	     64.92032735	      0.45728339	    -67.28117234	     34.55545675
      3.27118644	     -1.87593757	     -0.58957960	    101.74861946	      0.18837872	      0.48600511	      0.93296286	     -7.53505612	      2.85877792	     -4.27390423	      4.91476246	      0.08577879	     41.02725232	      0.40761693	      0.00000000	     -3.83511925	      2.41589372	      9.64035381	     10.14122275	      0.17699773	     42.07335604	     -4.03551640	      0.00000000	     -0.09088554	     -0.06998276	     -1.06558427	     -0.16878353	     -0.09307707	     -1.13218328	     -0.14931585	     -0.17015609	     -1.13218328	     -0.10387308	     -0.17015609	     -0.93238623	     -0.08439631	     -0.14270885	     -0.86578722	     -0.05193200	     -0.10840330	     -0.79918820	     -0.64918630	     -0.79165900	     -5.92646002	      0.00000000	      0.00000000	     21.03806796	     -0.85561143	     -5.89858254	    -33.50183090	    -18.37068747	     19.80821176	     78.92209515	     63.77659340	     67.87863201	    -23.92616889	    -33.69943760	     -8.17814488	      3.59402039	     64.99815394	      0.46388139	    -67.29800523	     34.54828586
      3.28813559	     -1.93311052	     -0.70456329	    101.87798827	      0.18853026	      0.48574912	      0.93283783	     -7.41394785	      2.78579471	     -4.96011690	      4.97159200	      0.08677065	     41.21562002	      1.04726685	      0.00000000	     -3.68106954	      2.40336504	      8.88329665	     10.24020787	      0.17872534	     42.18988493	     -3.04118009	      0.00000000	     -0.08497045	     -0.08101953	     -1.01662094	     -0.15779862	     -0.10775597	     -1.08015974	     -0.13959795	     -0.19699088	     -1.08015974	     -0.09711273	     -0.19699088	     -0.88954332	     -0.07890356	     -0.16521502	     -0.82600451	     -0.04855212	     -0.12549925	     -0.76246570	     -0.60693543	     -0.91650909	     -5.65414066	      0.00000000	      0.00000000	     21.33806211	     -0.95471268	     -6.19693049	    -33.83996227	    -17.83191872	     19.74625193	     78.58941150	     62.96381210	     67.84275418	    -23.98134884	    -33.68196458	     -8.30248532	      3.51801653	     65.06913398	      0.46893207	    -67.31349911	     34.54394738
